<?xml version="1.0" encoding="UTF-8" standalone="no"?>
<svg
   xmlns:dc="http://purl.org/dc/elements/1.1/"
   xmlns:cc="http://creativecommons.org/ns#"
   xmlns:rdf="http://www.w3.org/1999/02/22-rdf-syntax-ns#"
   xmlns:svg="http://www.w3.org/2000/svg"
   xmlns="http://www.w3.org/2000/svg"
   xmlns:sodipodi="http://sodipodi.sourceforge.net/DTD/sodipodi-0.dtd"
   xmlns:inkscape="http://www.inkscape.org/namespaces/inkscape"
   width="744.89148mm"
   height="257.65137mm"
   viewBox="0 0 744.89148 257.65137"
   version="1.1"
   id="svg8"
   inkscape:version="1.0.1 (3bc2e813f5, 2020-09-07)"
   sodipodi:docname="fat-tree.svg">
  <defs
     id="defs2">
    <inkscape:path-effect
       effect="powerstroke"
       id="path-effect1597"
       is_visible="true"
       lpeversion="1"
       offset_points="0,0.1322915"
       sort_points="true"
       interpolator_type="CubicBezierJohan"
       interpolator_beta="0.2"
       start_linecap_type="zerowidth"
       linejoin_type="extrp_arc"
       miter_limit="4"
       scale_width="1"
       end_linecap_type="zerowidth" />
    <inkscape:path-effect
       effect="powerstroke"
       id="path-effect1425"
       is_visible="true"
       lpeversion="1"
       offset_points="0,0.1322915"
       sort_points="true"
       interpolator_type="CubicBezierJohan"
       interpolator_beta="0.2"
       start_linecap_type="zerowidth"
       linejoin_type="extrp_arc"
       miter_limit="4"
       scale_width="1"
       end_linecap_type="zerowidth" />
    <rect
       x="-655.48093"
       y="-95.338967"
       width="115.08371"
       height="75.873198"
       id="rect1408" />
    <rect
       x="-353.35559"
       y="500.61371"
       width="148.01733"
       height="31.09116"
       id="rect1216" />
    <rect
       x="-191.71675"
       y="209.21605"
       width="142.22485"
       height="31.689383"
       id="rect1183" />
    <rect
       x="-373.70398"
       y="108.18204"
       width="76.903915"
       height="30.873646"
       id="rect985" />
    <rect
       x="-387.16449"
       y="107.91967"
       width="98.997993"
       height="22.451227"
       id="rect966" />
    <rect
       x="-375.08185"
       y="104.81435"
       width="86.81501"
       height="38.307209"
       id="rect960" />
    <rect
       x="-362.9632"
       y="189.71927"
       width="122.05695"
       height="34.816429"
       id="rect961" />
    <rect
       x="-329.42996"
       y="200.44392"
       width="51.078953"
       height="19.931774"
       id="rect951" />
    <filter
       inkscape:collect="always"
       style="color-interpolation-filters:sRGB"
       id="filter933"
       x="-4.2704755e-06"
       width="1.0000085"
       y="-5.4794309e-06"
       height="1.000011">
      <feGaussianBlur
         inkscape:collect="always"
         stdDeviation="0.00025850779"
         id="feGaussianBlur935" />
    </filter>
  </defs>
  <sodipodi:namedview
     id="base"
     pagecolor="#ffffff"
     bordercolor="#666666"
     borderopacity="1.0"
     inkscape:pageopacity="0.0"
     inkscape:pageshadow="2"
     inkscape:zoom="0.28801784"
     inkscape:cx="920.54465"
     inkscape:cy="796.28308"
     inkscape:document-units="mm"
     inkscape:current-layer="layer1"
     inkscape:document-rotation="0"
     showgrid="false"
     showborder="false"
     inkscape:window-width="1366"
     inkscape:window-height="714"
     inkscape:window-x="0"
     inkscape:window-y="0"
     inkscape:window-maximized="1"
     inkscape:snap-global="false"
     fit-margin-top="0"
     fit-margin-left="0"
     fit-margin-right="0"
     fit-margin-bottom="0"
     units="mm" />
  <metadata
     id="metadata5">
    <rdf:RDF>
      <cc:Work
         rdf:about="">
        <dc:format>image/svg+xml</dc:format>
        <dc:type
           rdf:resource="http://purl.org/dc/dcmitype/StillImage" />
        <dc:title></dc:title>
      </cc:Work>
    </rdf:RDF>
  </metadata>
  <g
     inkscape:label="Στρώση 1"
     inkscape:groupmode="layer"
     id="layer1"
     transform="translate(362.9632,7.138049)">
    <path
       style="fill:#000000;fill-rule:nonzero;stroke:#000000;stroke-width:6;stroke-linecap:butt;stroke-linejoin:miter;stroke-miterlimit:4;stroke-dasharray:none;stroke-opacity:1"
       d="m -292.38597,193.44007 c 0,0 0.0841,0.10209 0.0841,0.10209 28.75209,-23.69793 114.92422,-94.893785 143.67631,-118.591709 -28.75209,23.697924 -115.0925,94.689609 -143.84459,118.387529 0,0 0.0841,0.10209 0.0841,0.10209 z"
       id="path1595"
       inkscape:path-effect="#path-effect1597"
       inkscape:original-d="M -292.38597,193.44007 -148.62552,74.950451" />
    <path
       style="fill:none;stroke:#000000;stroke-width:6;stroke-linecap:butt;stroke-linejoin:miter;stroke-miterlimit:4;stroke-dasharray:none;stroke-opacity:1"
       d="M 304.8772,192.0296 182.84218,75.200549"
       id="path945" />
    <path
       style="fill:none;stroke:#000000;stroke-width:6.11975;stroke-linecap:butt;stroke-linejoin:miter;stroke-miterlimit:4;stroke-dasharray:none;stroke-opacity:1"
       d="M -300.36515,194.24796 182.8206,75.274047"
       id="path937" />
    <path
       style="fill:none;stroke:#000000;stroke-width:6;stroke-linecap:butt;stroke-linejoin:miter;stroke-miterlimit:4;stroke-dasharray:none;stroke-opacity:1"
       d="M -150.43715,77.442551 -99.987218,191.96956 182.84218,75.200549"
       id="path941" />
    <path
       style="fill:none;stroke:#000000;stroke-width:6;stroke-linecap:butt;stroke-linejoin:miter;stroke-miterlimit:4;stroke-dasharray:none;stroke-opacity:1"
       d="M 182.84218,75.200549 99.368733,192.95196 -150.43715,77.442551"
       id="path943" />
    <path
       style="fill:none;stroke:#000000;stroke-width:6;stroke-linecap:butt;stroke-linejoin:miter;stroke-miterlimit:4;stroke-dasharray:none;stroke-opacity:1"
       d="M 304.8772,192.0296 -150.43715,77.442551"
       id="path947" />
    <g
       aria-label="8 port switch"
       transform="translate(295.96589,95.441351)"
       id="text959"
       style="font-style:normal;font-variant:normal;font-weight:normal;font-stretch:normal;font-size:17.6389px;line-height:1.25;font-family:sans-serif;-inkscape-font-specification:'sans-serif, Normal';font-variant-ligatures:normal;font-variant-caps:normal;font-variant-numeric:normal;font-variant-east-asian:normal;white-space:pre;shape-inside:url(#rect961);fill:#000000;fill-opacity:1;stroke:none">
      <g
         aria-label="8 port switches"
         id="text1181"
         style="font-style:normal;font-weight:normal;font-size:10.5833px;line-height:1.25;font-family:sans-serif;white-space:pre;shape-inside:url(#rect1183);fill:#000000;fill-opacity:1;stroke:none"
         transform="translate(-150.85724,-310.47209)">
        <g
           aria-label="8-port switches"
           id="text1214"
           style="font-style:normal;font-variant:normal;font-weight:normal;font-stretch:normal;font-size:17.6389px;line-height:1.25;font-family:sans-serif;-inkscape-font-specification:'sans-serif, Normal';font-variant-ligatures:normal;font-variant-caps:normal;font-variant-numeric:normal;font-variant-east-asian:normal;white-space:pre;shape-inside:url(#rect1216);fill:#000000;fill-opacity:1;stroke:none"
           transform="translate(161.65396,-294.92545)">
          <path
             d="m -347.74857,510.11314 q -1.24024,0 -1.9551,0.66318 -0.70624,0.66318 -0.70624,1.8259 0,1.16272 0.70624,1.8259 0.71486,0.66318 1.9551,0.66318 1.24023,0 1.95509,-0.66318 0.71486,-0.67179 0.71486,-1.8259 0,-1.16272 -0.71486,-1.8259 -0.70624,-0.66318 -1.95509,-0.66318 z m -1.73978,-0.7407 q -1.11965,-0.27561 -1.74838,-1.04214 -0.62012,-0.76653 -0.62012,-1.86897 0,-1.54168 1.09382,-2.4374 1.10243,-0.89573 3.01446,-0.89573 1.92064,0 3.01446,0.89573 1.09382,0.89572 1.09382,2.4374 0,1.10244 -0.62873,1.86897 -0.62012,0.76653 -1.73116,1.04214 1.25746,0.29284 1.95509,1.1455 0.70624,0.85266 0.70624,2.08428 0,1.86897 -1.14549,2.86805 -1.13688,0.99907 -3.26423,0.99907 -2.12735,0 -3.27284,-0.99907 -1.13689,-0.99908 -1.13689,-2.86805 0,-1.23162 0.70625,-2.08428 0.70624,-0.85266 1.9637,-1.1455 z m -0.63734,-2.74746 q 0,0.99908 0.62012,1.5589 0.62873,0.55983 1.757,0.55983 1.11965,0 1.74839,-0.55983 0.63734,-0.55982 0.63734,-1.5589 0,-0.99908 -0.63734,-1.55891 -0.62874,-0.55983 -1.74839,-0.55983 -1.12827,0 -1.757,0.55983 -0.62012,0.55983 -0.62012,1.55891 z"
             style="font-style:normal;font-variant:normal;font-weight:normal;font-stretch:normal;font-size:17.6389px;font-family:sans-serif;-inkscape-font-specification:'sans-serif, Normal';font-variant-ligatures:normal;font-variant-caps:normal;font-variant-numeric:normal;font-variant-east-asian:normal"
             id="path1220" />
          <path
             d="m -341.27179,510.68158 h 4.64227 v 1.41249 h -4.64227 z"
             style="font-style:normal;font-variant:normal;font-weight:normal;font-stretch:normal;font-size:17.6389px;font-family:sans-serif;-inkscape-font-specification:'sans-serif, Normal';font-variant-ligatures:normal;font-variant-caps:normal;font-variant-numeric:normal;font-variant-east-asian:normal"
             id="path1222" />
          <path
             d="m -332.57292,514.77263 v 5.11597 h -1.59335 v -13.3153 h 1.59335 v 1.46417 q 0.49954,-0.86128 1.25747,-1.27469 0.76653,-0.42202 1.8259,-0.42202 1.757,0 2.85082,1.39526 1.10243,1.39527 1.10243,3.66903 0,2.27376 -1.10243,3.66903 -1.09382,1.39526 -2.85082,1.39526 -1.05937,0 -1.8259,-0.41341 -0.75793,-0.42202 -1.25747,-1.2833 z m 5.39158,-3.36758 q 0,-1.74839 -0.72347,-2.73885 -0.71486,-0.99908 -1.97232,-0.99908 -1.25746,0 -1.98093,0.99908 -0.71486,0.99046 -0.71486,2.73885 0,1.74839 0.71486,2.74747 0.72347,0.99046 1.98093,0.99046 1.25746,0 1.97232,-0.99046 0.72347,-0.99908 0.72347,-2.74747 z"
             style="font-style:normal;font-variant:normal;font-weight:normal;font-stretch:normal;font-size:17.6389px;font-family:sans-serif;-inkscape-font-specification:'sans-serif, Normal';font-variant-ligatures:normal;font-variant-caps:normal;font-variant-numeric:normal;font-variant-east-asian:normal"
             id="path1224" />
          <path
             d="m -319.17149,507.68434 q -1.27468,0 -2.01538,0.99908 -0.74069,0.99047 -0.74069,2.72163 0,1.73116 0.73208,2.73024 0.7407,0.99047 2.02399,0.99047 1.26608,0 2.00677,-0.99908 0.7407,-0.99908 0.7407,-2.72163 0,-1.71394 -0.7407,-2.71301 -0.74069,-1.0077 -2.00677,-1.0077 z m 0,-1.34358 q 2.06706,0 3.24701,1.34358 1.17995,1.34359 1.17995,3.72071 0,2.3685 -1.17995,3.72071 -1.17995,1.34358 -3.24701,1.34358 -2.07567,0 -3.25561,-1.34358 -1.17134,-1.35221 -1.17134,-3.72071 0,-2.37712 1.17134,-3.72071 1.17994,-1.34358 3.25561,-1.34358 z"
             style="font-style:normal;font-variant:normal;font-weight:normal;font-stretch:normal;font-size:17.6389px;font-family:sans-serif;-inkscape-font-specification:'sans-serif, Normal';font-variant-ligatures:normal;font-variant-caps:normal;font-variant-numeric:normal;font-variant-east-asian:normal"
             id="path1226" />
          <path
             d="m -306.52798,508.05469 q -0.26699,-0.15503 -0.58566,-0.22393 -0.31006,-0.0775 -0.68902,-0.0775 -1.34359,0 -2.06706,0.8785 -0.71486,0.86988 -0.71486,2.50631 v 5.08151 h -1.59336 v -9.64627 h 1.59336 v 1.49862 q 0.49954,-0.8785 1.30053,-1.30053 0.80098,-0.43063 1.94648,-0.43063 0.16364,0 0.36173,0.0258 0.19809,0.0172 0.43925,0.0603 z"
             style="font-style:normal;font-variant:normal;font-weight:normal;font-stretch:normal;font-size:17.6389px;font-family:sans-serif;-inkscape-font-specification:'sans-serif, Normal';font-variant-ligatures:normal;font-variant-caps:normal;font-variant-numeric:normal;font-variant-east-asian:normal"
             id="path1228" />
          <path
             d="m -303.2982,503.83445 v 2.73885 h 3.26423 v 1.23162 h -3.26423 v 5.23655 q 0,1.17995 0.31867,1.51584 0.32729,0.3359 1.31775,0.3359 h 1.62781 v 1.32636 h -1.62781 q -1.83451,0 -2.53214,-0.6804 -0.69764,-0.68902 -0.69764,-2.4977 v -5.23655 h -1.16272 v -1.23162 h 1.16272 v -2.73885 z"
             style="font-style:normal;font-variant:normal;font-weight:normal;font-stretch:normal;font-size:17.6389px;font-family:sans-serif;-inkscape-font-specification:'sans-serif, Normal';font-variant-ligatures:normal;font-variant-caps:normal;font-variant-numeric:normal;font-variant-east-asian:normal"
             id="path1230" />
          <path
             d="m -286.19329,506.85752 v 1.49862 q -0.67179,-0.34451 -1.39526,-0.51677 -0.72347,-0.17225 -1.49862,-0.17225 -1.17995,0 -1.77423,0.36173 -0.58566,0.36174 -0.58566,1.08521 0,0.55122 0.42202,0.86989 0.42203,0.31006 1.69671,0.59428 l 0.54261,0.12058 q 1.68809,0.36173 2.39434,1.02491 0.71486,0.65457 0.71486,1.83452 0,1.34358 -1.06798,2.12734 -1.05937,0.78376 -2.91972,0.78376 -0.77515,0 -1.6192,-0.15503 -0.83544,-0.14641 -1.76561,-0.44786 v -1.63642 q 0.8785,0.45648 1.73116,0.68902 0.85266,0.22393 1.6881,0.22393 1.11965,0 1.72255,-0.37896 0.60289,-0.38757 0.60289,-1.08521 0,-0.64595 -0.43925,-0.99046 -0.43064,-0.34451 -1.90342,-0.66318 l -0.55121,-0.12919 q -1.47278,-0.31006 -2.12735,-0.94741 -0.65457,-0.64595 -0.65457,-1.76561 0,-1.36081 0.96463,-2.10151 0.96462,-0.74069 2.73885,-0.74069 0.8785,0 1.65365,0.12919 0.77514,0.12919 1.42971,0.38757 z"
             style="font-style:normal;font-variant:normal;font-weight:normal;font-stretch:normal;font-size:17.6389px;font-family:sans-serif;-inkscape-font-specification:'sans-serif, Normal';font-variant-ligatures:normal;font-variant-caps:normal;font-variant-numeric:normal;font-variant-east-asian:normal"
             id="path1232" />
          <path
             d="m -284.07455,506.5733 h 1.58474 l 1.98094,7.52754 1.97231,-7.52754 h 1.86897 l 1.98093,7.52754 1.97232,-7.52754 h 1.58474 l -2.52353,9.64627 h -1.86897 l -2.07567,-7.9065 -2.08428,7.9065 h -1.86897 z"
             style="font-style:normal;font-variant:normal;font-weight:normal;font-stretch:normal;font-size:17.6389px;font-family:sans-serif;-inkscape-font-specification:'sans-serif, Normal';font-variant-ligatures:normal;font-variant-caps:normal;font-variant-numeric:normal;font-variant-east-asian:normal"
             id="path1234" />
          <path
             d="m -268.72664,506.5733 h 1.58474 v 9.64627 h -1.58474 z m 0,-3.75516 h 1.58474 v 2.00677 h -1.58474 z"
             style="font-style:normal;font-variant:normal;font-weight:normal;font-stretch:normal;font-size:17.6389px;font-family:sans-serif;-inkscape-font-specification:'sans-serif, Normal';font-variant-ligatures:normal;font-variant-caps:normal;font-variant-numeric:normal;font-variant-east-asian:normal"
             id="path1236" />
          <path
             d="m -262.25847,503.83445 v 2.73885 h 3.26423 v 1.23162 h -3.26423 v 5.23655 q 0,1.17995 0.31867,1.51584 0.32728,0.3359 1.31775,0.3359 h 1.62781 v 1.32636 h -1.62781 q -1.83451,0 -2.53215,-0.6804 -0.69763,-0.68902 -0.69763,-2.4977 v -5.23655 h -1.16272 v -1.23162 h 1.16272 v -2.73885 z"
             style="font-style:normal;font-variant:normal;font-weight:normal;font-stretch:normal;font-size:17.6389px;font-family:sans-serif;-inkscape-font-specification:'sans-serif, Normal';font-variant-ligatures:normal;font-variant-caps:normal;font-variant-numeric:normal;font-variant-east-asian:normal"
             id="path1238" />
          <path
             d="m -249.96809,506.94365 v 1.48139 q -0.67179,-0.37035 -1.3522,-0.55122 -0.67179,-0.18948 -1.36081,-0.18948 -1.54168,0 -2.39435,0.98186 -0.85266,0.97324 -0.85266,2.73885 0,1.76561 0.85266,2.74747 0.85267,0.97324 2.39435,0.97324 0.68902,0 1.36081,-0.18087 0.68041,-0.18948 1.3522,-0.55983 v 1.46417 q -0.66318,0.31006 -1.37804,0.46508 -0.70624,0.15503 -1.50723,0.15503 -2.17902,0 -3.46232,-1.36942 -1.2833,-1.36943 -1.2833,-3.69487 0,-2.35989 1.29191,-3.71209 1.30053,-1.3522 3.55707,-1.3522 0.73208,0 1.42971,0.15503 0.69763,0.14641 1.3522,0.44786 z"
             style="font-style:normal;font-variant:normal;font-weight:normal;font-stretch:normal;font-size:17.6389px;font-family:sans-serif;-inkscape-font-specification:'sans-serif, Normal';font-variant-ligatures:normal;font-variant-caps:normal;font-variant-numeric:normal;font-variant-east-asian:normal"
             id="path1240" />
          <path
             d="m -239.19354,510.39736 v 5.82221 h -1.58475 v -5.77053 q 0,-1.36943 -0.53399,-2.04984 -0.53399,-0.6804 -1.60197,-0.6804 -1.2833,0 -2.02399,0.81821 -0.7407,0.81821 -0.7407,2.2307 v 5.45186 h -1.59336 v -13.40143 h 1.59336 v 5.25378 q 0.56844,-0.86989 1.33498,-1.30053 0.77514,-0.43063 1.78283,-0.43063 1.66226,0 2.51493,1.03353 0.85266,1.02491 0.85266,3.02307 z"
             style="font-style:normal;font-variant:normal;font-weight:normal;font-stretch:normal;font-size:17.6389px;font-family:sans-serif;-inkscape-font-specification:'sans-serif, Normal';font-variant-ligatures:normal;font-variant-caps:normal;font-variant-numeric:normal;font-variant-east-asian:normal"
             id="path1242" />
          <path
             d="m -227.78165,511.00025 v 0.77515 h -7.28639 q 0.10336,1.63642 0.98186,2.49769 0.88711,0.85267 2.46324,0.85267 0.91295,0 1.76561,-0.22394 0.86128,-0.22393 1.70533,-0.67179 v 1.49862 q -0.85266,0.36173 -1.74839,0.55121 -0.89573,0.18948 -1.81729,0.18948 -2.30821,0 -3.66042,-1.34358 -1.34358,-1.34359 -1.34358,-3.63458 0,-2.36851 1.27468,-3.75516 1.2833,-1.39526 3.45371,-1.39526 1.94648,0 3.07475,1.25746 1.13689,1.24885 1.13689,3.40203 z m -1.58475,-0.46509 q -0.0172,-1.30052 -0.73208,-2.07567 -0.70625,-0.77515 -1.87758,-0.77515 -1.32636,0 -2.12735,0.74931 -0.79237,0.74931 -0.91295,2.11013 z"
             style="font-style:normal;font-variant:normal;font-weight:normal;font-stretch:normal;font-size:17.6389px;font-family:sans-serif;-inkscape-font-specification:'sans-serif, Normal';font-variant-ligatures:normal;font-variant-caps:normal;font-variant-numeric:normal;font-variant-east-asian:normal"
             id="path1244" />
          <path
             d="m -219.03111,506.85752 v 1.49862 q -0.67179,-0.34451 -1.39526,-0.51677 -0.72347,-0.17225 -1.49862,-0.17225 -1.17994,0 -1.77422,0.36173 -0.58567,0.36174 -0.58567,1.08521 0,0.55122 0.42202,0.86989 0.42203,0.31006 1.69672,0.59428 l 0.5426,0.12058 q 1.6881,0.36173 2.39434,1.02491 0.71486,0.65457 0.71486,1.83452 0,1.34358 -1.06798,2.12734 -1.05937,0.78376 -2.91972,0.78376 -0.77515,0 -1.6192,-0.15503 -0.83543,-0.14641 -1.76561,-0.44786 v -1.63642 q 0.8785,0.45648 1.73116,0.68902 0.85266,0.22393 1.6881,0.22393 1.11966,0 1.72255,-0.37896 0.60289,-0.38757 0.60289,-1.08521 0,-0.64595 -0.43925,-0.99046 -0.43064,-0.34451 -1.90342,-0.66318 l -0.55121,-0.12919 q -1.47278,-0.31006 -2.12735,-0.94741 -0.65457,-0.64595 -0.65457,-1.76561 0,-1.36081 0.96463,-2.10151 0.96463,-0.74069 2.73885,-0.74069 0.8785,0 1.65365,0.12919 0.77515,0.12919 1.42971,0.38757 z"
             style="font-style:normal;font-variant:normal;font-weight:normal;font-stretch:normal;font-size:17.6389px;font-family:sans-serif;-inkscape-font-specification:'sans-serif, Normal';font-variant-ligatures:normal;font-variant-caps:normal;font-variant-numeric:normal;font-variant-east-asian:normal"
             id="path1246" />
        </g>
      </g>
    </g>
    <rect
       style="fill:#999999;stroke-width:0.264583"
       id="rect10"
       width="150"
       height="35"
       x="-217.82196"
       y="42.384502" />
    <rect
       style="fill:#999999;stroke-width:0.264583"
       id="rect12"
       width="150"
       height="35"
       x="108.10905"
       y="42.384502" />
    <rect
       style="fill:#999999;stroke-width:0.264583"
       id="rect10-2"
       width="150"
       height="35"
       x="-362.9632"
       y="189.71927" />
    <rect
       style="fill:#999999;stroke-width:0.264583"
       id="rect10-18"
       width="150"
       height="35"
       x="-164.66605"
       y="189.71927" />
    <rect
       style="fill:#999999;stroke-width:0.264583"
       id="rect10-4"
       width="150"
       height="35"
       x="33.631092"
       y="189.71927" />
    <rect
       style="fill:#999999;stroke-width:0.264583"
       id="rect10-0"
       width="150"
       height="35"
       x="231.92827"
       y="189.71927" />
    <text
       xml:space="preserve"
       id="text949"
       style="font-style:normal;font-weight:normal;font-size:10.5833px;line-height:1.25;font-family:sans-serif;white-space:pre;shape-inside:url(#rect951);fill:#000000;fill-opacity:1;stroke:none;" />
    <g
       aria-label="2x Link"
       id="text958"
       style="font-style:normal;font-weight:normal;font-size:10.5833px;line-height:1.25;font-family:sans-serif;white-space:pre;shape-inside:url(#rect960);fill:#000000;fill-opacity:1;stroke:none"
       transform="translate(70.323837,7.5083563)">
      <path
         d="m -371.69722,118.95658 h 6.07198 v 1.46417 h -8.16488 v -1.46417 q 0.99047,-1.02492 2.69579,-2.74747 1.71394,-1.73116 2.15319,-2.2307 0.83543,-0.93879 1.16272,-1.58474 0.33589,-0.65457 0.33589,-1.2833 0,-1.02492 -0.72347,-1.67087 -0.71486,-0.64596 -1.86896,-0.64596 -0.81821,0 -1.73116,0.28422 -0.90434,0.28422 -1.93787,0.86128 v -1.757 q 1.05075,-0.42203 1.9637,-0.63735 0.91295,-0.21532 1.67088,-0.21532 1.99815,0 3.18671,0.99908 1.18856,0.99908 1.18856,2.66995 0,0.79238 -0.30145,1.50723 -0.29283,0.70625 -1.07659,1.67088 -0.21532,0.24977 -1.36943,1.44694 -1.1541,1.18856 -3.25561,3.33313 z"
         style="font-style:normal;font-variant:normal;font-weight:normal;font-stretch:normal;font-size:17.6389px;font-family:sans-serif;-inkscape-font-specification:'sans-serif, Normal';font-variant-ligatures:normal;font-variant-caps:normal;font-variant-numeric:normal;font-variant-east-asian:normal"
         id="path970" />
      <path
         d="m -354.1789,110.77447 -3.48816,4.69395 3.66903,4.95233 h -1.86897 l -2.80775,-3.78961 -2.80776,3.78961 h -1.86896 l 3.74654,-5.04707 -3.42787,-4.59921 h 1.86896 l 2.55799,3.43649 2.55798,-3.43649 z"
         style="font-style:normal;font-variant:normal;font-weight:normal;font-stretch:normal;font-size:17.6389px;font-family:sans-serif;-inkscape-font-specification:'sans-serif, Normal';font-variant-ligatures:normal;font-variant-caps:normal;font-variant-numeric:normal;font-variant-east-asian:normal"
         id="path972" />
      <path
         d="m -346.08292,107.56192 h 1.73977 v 11.39466 h 6.26147 v 1.46417 h -8.00124 z"
         style="font-style:normal;font-variant:normal;font-weight:normal;font-stretch:normal;font-size:17.6389px;font-family:sans-serif;-inkscape-font-specification:'sans-serif, Normal';font-variant-ligatures:normal;font-variant-caps:normal;font-variant-numeric:normal;font-variant-east-asian:normal"
         id="path974" />
      <path
         d="m -336.32468,110.77447 h 1.58475 v 9.64628 h -1.58475 z m 0,-3.75515 h 1.58475 v 2.00677 h -1.58475 z"
         style="font-style:normal;font-variant:normal;font-weight:normal;font-stretch:normal;font-size:17.6389px;font-family:sans-serif;-inkscape-font-specification:'sans-serif, Normal';font-variant-ligatures:normal;font-variant-caps:normal;font-variant-numeric:normal;font-variant-east-asian:normal"
         id="path976" />
      <path
         d="m -323.40556,114.59853 v 5.82222 h -1.58475 v -5.77054 q 0,-1.36943 -0.53399,-2.04984 -0.53399,-0.6804 -1.60197,-0.6804 -1.2833,0 -2.02399,0.81821 -0.7407,0.81821 -0.7407,2.2307 v 5.45187 h -1.59336 v -9.64628 h 1.59336 v 1.49862 q 0.56844,-0.86989 1.33498,-1.30052 0.77514,-0.43064 1.78283,-0.43064 1.66226,0 2.51492,1.03353 0.85267,1.02491 0.85267,3.02307 z"
         style="font-style:normal;font-variant:normal;font-weight:normal;font-stretch:normal;font-size:17.6389px;font-family:sans-serif;-inkscape-font-specification:'sans-serif, Normal';font-variant-ligatures:normal;font-variant-caps:normal;font-variant-numeric:normal;font-variant-east-asian:normal"
         id="path978" />
      <path
         d="m -320.30497,107.01932 h 1.59335 v 7.91511 l 4.7284,-4.15996 h 2.024 l -5.11597,4.51308 5.33128,5.1332 h -2.06705 l -4.90066,-4.71118 v 4.71118 h -1.59335 z"
         style="font-style:normal;font-variant:normal;font-weight:normal;font-stretch:normal;font-size:17.6389px;font-family:sans-serif;-inkscape-font-specification:'sans-serif, Normal';font-variant-ligatures:normal;font-variant-caps:normal;font-variant-numeric:normal;font-variant-east-asian:normal"
         id="path980" />
    </g>
    <text
       xml:space="preserve"
       id="text964"
       style="font-style:normal;font-weight:normal;font-size:10.5833px;line-height:1.25;font-family:sans-serif;white-space:pre;shape-inside:url(#rect966);fill:#000000;fill-opacity:1;stroke:none;" />
    <text
       xml:space="preserve"
       id="text983"
       style="font-style:normal;font-weight:normal;font-size:10.5833px;line-height:1.25;font-family:sans-serif;white-space:pre;shape-inside:url(#rect985);fill:#000000;fill-opacity:1;stroke:none;" />
    <path
       style="fill:none;stroke:#000000;stroke-width:3;stroke-linecap:butt;stroke-linejoin:miter;stroke-miterlimit:4;stroke-dasharray:none;stroke-opacity:1"
       d="m -340.51623,223.61706 v 25.57658"
       id="path1045" />
    <path
       style="fill:none;stroke:#000000;stroke-width:3;stroke-linecap:butt;stroke-linejoin:miter;stroke-miterlimit:4;stroke-dasharray:none;stroke-opacity:1"
       d="m -306.5132,223.61706 v 25.57658"
       id="path1045-9" />
    <path
       style="fill:none;stroke:#000000;stroke-width:3;stroke-linecap:butt;stroke-linejoin:miter;stroke-miterlimit:4;stroke-dasharray:none;stroke-opacity:1"
       d="m -272.51014,223.61706 v 25.57658"
       id="path1045-0" />
    <path
       style="fill:none;stroke:#000000;stroke-width:3;stroke-linecap:butt;stroke-linejoin:miter;stroke-miterlimit:4;stroke-dasharray:none;stroke-opacity:1"
       d="m -238.5071,223.61706 v 25.57658"
       id="path1045-91" />
    <path
       style="fill:none;stroke:#000000;stroke-width:3;stroke-linecap:butt;stroke-linejoin:miter;stroke-miterlimit:4;stroke-dasharray:none;stroke-opacity:1"
       d="m -142.22898,224.93674 v 25.57658"
       id="path1045-6" />
    <path
       style="fill:none;stroke:#000000;stroke-width:3;stroke-linecap:butt;stroke-linejoin:miter;stroke-miterlimit:4;stroke-dasharray:none;stroke-opacity:1"
       d="m -108.22595,224.93674 v 25.57658"
       id="path1045-9-7" />
    <path
       style="fill:none;stroke:#000000;stroke-width:3;stroke-linecap:butt;stroke-linejoin:miter;stroke-miterlimit:4;stroke-dasharray:none;stroke-opacity:1"
       d="m -74.222895,224.93674 v 25.57658"
       id="path1045-0-3" />
    <path
       style="fill:none;stroke:#000000;stroke-width:3;stroke-linecap:butt;stroke-linejoin:miter;stroke-miterlimit:4;stroke-dasharray:none;stroke-opacity:1"
       d="m -40.219857,224.93674 v 25.57658"
       id="path1045-91-6" />
    <path
       style="fill:none;stroke:#000000;stroke-width:3;stroke-linecap:butt;stroke-linejoin:miter;stroke-miterlimit:4;stroke-dasharray:none;stroke-opacity:1"
       d="m 58.677474,224.84088 v 25.57658"
       id="path1045-5" />
    <path
       style="fill:none;stroke:#000000;stroke-width:3;stroke-linecap:butt;stroke-linejoin:miter;stroke-miterlimit:4;stroke-dasharray:none;stroke-opacity:1"
       d="m 92.680506,224.84088 v 25.57658"
       id="path1045-9-6" />
    <path
       style="fill:none;stroke:#000000;stroke-width:3;stroke-linecap:butt;stroke-linejoin:miter;stroke-miterlimit:4;stroke-dasharray:none;stroke-opacity:1"
       d="m 126.68357,224.84088 v 25.57658"
       id="path1045-0-39" />
    <path
       style="fill:none;stroke:#000000;stroke-width:3;stroke-linecap:butt;stroke-linejoin:miter;stroke-miterlimit:4;stroke-dasharray:none;stroke-opacity:1"
       d="m 160.68661,224.84088 v 25.57658"
       id="path1045-91-4" />
    <path
       style="fill:none;stroke:#000000;stroke-width:3;stroke-linecap:butt;stroke-linejoin:miter;stroke-miterlimit:4;stroke-dasharray:none;stroke-opacity:1"
       d="m 252.55209,224.11884 v 25.57658"
       id="path1045-8" />
    <path
       style="fill:none;stroke:#000000;stroke-width:3;stroke-linecap:butt;stroke-linejoin:miter;stroke-miterlimit:4;stroke-dasharray:none;stroke-opacity:1"
       d="m 286.55512,224.11884 v 25.57658"
       id="path1045-9-1" />
    <path
       style="fill:none;stroke:#000000;stroke-width:3;stroke-linecap:butt;stroke-linejoin:miter;stroke-miterlimit:4;stroke-dasharray:none;stroke-opacity:1"
       d="m 320.55818,224.11884 v 25.57658"
       id="path1045-0-2" />
    <path
       style="fill:none;stroke:#000000;stroke-width:3;stroke-linecap:butt;stroke-linejoin:miter;stroke-miterlimit:4;stroke-dasharray:none;stroke-opacity:1"
       d="m 354.56122,224.11884 v 25.57658"
       id="path1045-91-9" />
    <g
       aria-label="2x Link"
       id="text958-3"
       style="font-style:normal;font-weight:normal;font-size:10.5833px;line-height:1.25;font-family:sans-serif;white-space:pre;shape-inside:url(#rect960);fill:#000000;fill-opacity:1;stroke:none"
       transform="translate(-70.966219,121.47715)" />
  </g>
</svg>
